<?xml version="1.0" encoding="utf-8"?>
<!-- Generator: Adobe Illustrator 25.0.1, SVG Export Plug-In . SVG Version: 6.00 Build 0)  -->
<svg version="1.1" id="Layer_1" xmlns="http://www.w3.org/2000/svg" xmlns:xlink="http://www.w3.org/1999/xlink" x="0px" y="0px"
	 viewBox="0 0 305.8 173.2" style="enable-background:new 0 0 305.8 173.2;" xml:space="preserve">
<g id="Layer_2_1_">
	<g id="Layer_1-2">
		<path d="M192.9,135.9h8.9v36.4h6.6v-47.9h-4.3c-1.7,5-4.5,7.2-11.2,7.2V135.9z M182.9,148.6c0,12.9-4.2,19.4-12.9,19.4
			s-13-6.5-13-19.4s4.2-19.4,12.9-19.4S182.8,135.6,182.9,148.6 M189.7,148.6c0-15.8-7.3-24.7-19.8-24.7s-19.7,8.9-19.7,24.7
			s7.2,24.7,19.7,24.7S189.7,164.3,189.7,148.6 M123.3,162.5c3.8-3.4,7.8-7.1,12-11.1c3.6-3.3,6.9-7,9.9-10.8
			c2.1-2.8,3.1-5.1,3.2-6.9c0-1.7-0.5-3.4-1.5-4.8c-1-1.6-2.2-2.3-3.4-2.3c-0.1,0-0.3,0-0.4,0.1c-0.2,0-0.3,0.1-0.5,0.2
			c-2.7,1.4-5.2,3-7.7,4.6c-2.2,1.5-4.4,3.1-6.3,5l0.4,0.4c1.7-1.4,3.6-2.7,5.5-3.9c1.3-0.9,2.8-1.6,4.3-2.1c1.1,0.4,2,1.1,2.5,2.1
			c0.6,1.2,0.9,2.4,0.9,3.8c0,2.4-0.7,4.8-1.9,6.9c-1.5,2.7-3.4,5.2-5.7,7.3c-2.5,2.5-5.6,5.4-9.2,8.6c-3.6,3.3-6.9,6.2-10,8.8
			c-0.6,0-1.3-0.3-1.7-0.7c-0.5-0.5-0.7-1.1-0.8-1.7c1.4-6.5,2.5-12.5,3.3-17.9c0.7-3.5,1.1-7.1,1.2-10.7c0-2.7-0.5-5.4-1.6-7.9
			c-1-1.9-2.2-2.9-3.8-2.9c-0.3,0-0.6,0.1-0.9,0.1c-0.4,0.1-0.8,0.3-1.1,0.5c-2.3,1.3-4.5,2.7-6.6,4.3c-2.2,1.6-4.2,3.4-6.2,5.2
			l0.4,0.4c1.5-1.3,3.2-2.6,4.9-3.6c1.2-0.9,2.6-1.6,4-2.1c1.1,0.1,2,0.8,2.7,2.3c0.8,1.8,1.2,3.8,1.2,5.8c-0.1,3.1-0.5,6.2-1,9.2
			c-0.7,4.3-2,11.2-3.9,20.8c0.1,1,0.7,1.9,1.6,2.4c0.8,0.6,1.7,0.9,2.7,1c0.4,0,0.7,0,1.1-0.1c0.3-0.1,0.6-0.3,0.8-0.5
			C115.7,169.1,119.4,165.9,123.3,162.5"/>
		<path d="M2.8,51.8V26.3c0-0.3,0-0.6,0.2-0.8c0.1-0.2,0.2-0.3,0.4-0.5c3.1-3,6.5-6.5,10.1-10.5c3.4-3.8,6.5-7.1,9.5-10
			c2.9-3,5-4.4,6.4-4.4c1.1,0,2.1,0.4,3,1c1,0.8,1.9,1.6,2.7,2.5c1.8,2.1,4,3.8,6.5,5.1c2.8,1.5,6.9,1.8,12.3,1c-1,2.1-2.3,4-4,5.6
			c-1.9,1.9-4,3.6-6.3,5c-1.9,1.3-4.2,2-6.5,2.1c-2.4,0.1-4.8-0.3-7-1.2c-1.6-0.7-3.1-1.7-4.4-2.9c-1-1-1.9-2.1-2.7-3.2
			c-0.3-0.5-0.9-0.8-1.5-0.7c-0.6,0.1-1.2,0.4-1.6,0.9c-0.5,0.5-0.7,1.1-0.7,1.8v58.8c2.1,0,3.6,0.3,4.4,0.9c0.8,0.6,1.5,1.4,2,2.2
			c0.5,0.8,1.1,1.6,1.8,2.2c0.8,0.6,2.2,0.9,4.3,0.9c0.5,0,1.1-0.1,1.6-0.3c0.6-0.2,0.9-0.8,0.9-1.7v-23c0.1-1.3-0.3-2.5-1.1-3.5
			c-0.7-0.8-1.7-1.4-2.7-1.6c-0.2-0.1-0.4-0.3-0.3-0.5c0-0.2,0.1-0.5,0.3-0.6c2.2-2.1,4.2-4.5,5.8-7.1c0.7-1.2,1.5-2.3,2.4-3.3
			c0.6-0.8,1.5-1.3,2.4-1.3c0.8,0.1,1.6,0.4,2.2,1.1c0.8,0.8,1.6,1.7,2.3,2.7c1.2,1.6,2.6,3.1,4,4.5c0.3,0.2,0.5,0.4,0.7,0.7
			c0.2,0.4,0.4,0.9,0.3,1.4v32.7c0.1,0.4,0.3,0.8,0.5,1.1c0.2,0.4,0.4,0.7,0.7,1c0.4,0.4,0.8,0.6,1.3,0.8c0.1,0,0.2,0.2,0.2,0.3
			c0.1,0.2,0.1,0.4,0,0.6c0,0.2-0.2,0.4-0.3,0.5c-1.5,1.4-2.9,3-4.2,4.6c-1,1.4-2.2,2.7-3.4,3.8c-0.9,1-2.2,1.6-3.5,1.7
			c-1.2-0.1-2.2-0.8-2.9-1.8c-1-1.2-1.9-2.5-2.7-3.9c-0.7-1.1-1.3-2-1.9-2.8s-1.1-1.2-1.5-1.2h-0.5c-0.8,0.1-1.5,0.5-1.8,1.2
			c-0.5,0.8-1.1,1.8-1.7,2.9c-0.6,1.4-1.4,2.7-2.3,3.9c-0.7,1.1-1.9,1.7-3.1,1.8c-1.4,0-2.7-0.6-3.6-1.6c-1.1-1.1-2.2-2.4-3.1-3.6
			c-0.8-1.2-1.7-2.3-2.7-3.3c-0.7-0.9-1.8-1.4-3-1.4c-1,0-2.5,0-4.5,0.1s-3.7,0.1-5.2,0.1c-1.3,0-1.5-0.4-0.7-1.3
			c0.7-0.7,1.2-1.5,1.6-2.4c0.5-1.2,0.8-2.6,0.7-3.9V51.8z"/>
		<path d="M70.5,17.2c0.1-1.5-0.3-3-1.2-4.1c-0.7-0.8-1.4-1.4-2.3-2l-0.1-0.1c1.2-0.7,2.3-1.6,3.4-2.6c1.2-1.1,2.4-2.3,3.6-3.6
			c1.2-1.3,2.4-2.4,3.5-3.4c0.6-0.7,1.5-1.2,2.4-1.4c1.1,0.1,2.2,0.8,2.7,1.8C83.3,3,84,4.3,84.7,5.7c0.6,1.2,1.3,2.4,2.1,3.4h0.1
			c0.1,0.1,0.2,0.2,0.2,0.3c0.1,0.3,0.2,0.6,0.1,0.9v65.1c1.7,0.1,3.4,0.8,4.7,1.9c1.1,0.9,2,2,2.8,3.2c0.7,1.2,1.8,2.2,3,2.9
			c0.8-0.2,1.5-0.5,2.2-1.1c0.6-0.5,1.3-0.9,2-1.2c0.2,0,0.6,0.2,1,0.6c0.4,0.4,0.8,0.9,1.1,1.4c0.3,0.4,0.3,0.9,0.2,1.3
			c-2.7,2-5,4.5-6.9,7.3c-0.8,1.1-1.7,2.2-2.6,3.3c-0.7,0.8-1.6,1.3-2.7,1.3c-1.1,0-2.2-0.5-2.9-1.3c-1-0.9-1.9-1.9-2.8-3
			c-1.6-2.1-3.5-3.8-5.8-5.2c-1-0.4-2-0.5-3-0.5c-1.3-0.1-2.7,0-4,0.1s-3.1,0.2-5,0.5c0.6-0.7,1.2-1.5,1.8-2.4
			c0.4-0.8,0.8-1.7,1-2.6c0.3-1,0.5-2,0.4-3c0-7.7-0.2-18.1-0.5-31.3C70.7,34.8,70.5,24.6,70.5,17.2"/>
		<path d="M140.2,54.6h11.2l-4.6-21.9L140.2,54.6z M174.8,79.6c0.5,1.2,1.3,2.2,2.2,3.1c0.7,0.7,1.6,1.4,2.4,1.9
			c0.4,0.2,0.6,0.7,0.4,1.1c0,0.1-0.1,0.2-0.2,0.2c-0.8,1-1.9,2.2-3.3,3.8s-2.9,3.1-4.4,4.4s-2.6,2-3.4,2c-1.2-0.2-2.3-0.8-3.2-1.6
			c-1.4-1-2.7-2.2-4-3.4c-0.8-0.7-1.5-1.5-2.2-2.4c-0.4-1.6-0.8-3.7-1.3-6.1s-1-5-1.4-7.5s-1-5.6-1.7-9.1l-17.2,0.1
			c-0.4,1.6-0.7,2.9-1,4.1s-0.6,2.3-0.8,3.4s-0.5,2.1-0.7,2.9c1,0.1,2,0.5,2.8,1.1c0.6,0.5,1.2,1.1,1.7,1.7c0.4,0.5,0.8,0.9,1.2,1.3
			c0.4,0.4,0.9,0.6,1.5,0.8c0.9,0.1,1.8-0.1,2.6-0.5c0.9-0.4,1.7-0.8,2.5-1.3c0.3-0.2,0.6-0.2,1,0.2s1,1.2,2,2.4c0,0.1,0,0.2,0,0.3
			c0,0.1-0.1,0.2-0.1,0.3c0,0.1-0.1,0.2-0.2,0.2c-2.7,1.9-5,4.3-6.8,7.1c-1.1,1.5-2.3,3-3.6,4.3c-1,1.1-2.3,1.8-3.8,1.8
			c-1,0-1.9-0.4-2.5-1.1c-0.7-0.8-1.3-1.7-1.8-2.6c-0.7-1.3-1.6-2.6-2.6-3.7c-1.3-1.3-3-2.3-4.8-2.7c-0.5,0-1-0.1-1.4-0.1
			c-1-0.1-1.9-0.1-2.5-0.2c-0.8,0-1.5,0-2.3,0.1c-0.9,0.1-2.2,0.2-4,0.4c-0.3,0-0.6,0-0.8-0.2c-0.3-0.2-0.5-0.4-0.5-0.7
			c0-0.5,0.1-0.9,0.4-1.3c1.3-1.7,2.6-3.3,4.2-4.8c1.9-1.9,4-3.6,6.4-4.9c0.9-4,2.3-9.4,3.9-16c1.7-6.6,3.4-13.4,5.1-20.3
			c1.7-6.9,3.8-15.2,6.3-24.8c0.1-0.3,0.1-0.6,0-0.8c0-0.3-0.1-0.5-0.3-0.7c-0.2-0.3-0.4-0.5-0.6-0.7c-0.4-0.2-0.8-0.3-1.2-0.3
			c-0.1,0-0.2-0.1-0.3-0.1c-0.1,0-0.2-0.1-0.2-0.1c-0.1-0.1-0.1-0.2-0.1-0.3c0-0.2,0.1-0.4,0.2-0.5c0.8-1.2,1.7-2.2,2.8-3.2
			c1.2-1.2,2.3-2.2,3.3-3.1l2-1.7c0,0,0.1,0,0.1-0.1c0.6-0.5,1.3-1,2-1.3c0.7-0.3,1.6-0.3,2.3,0c1.3,0.6,2.4,1.5,3.3,2.6
			c1.4,1.4,2.4,2.6,3.1,3.4c0.6,0.7,1.1,1.4,1.6,2.2c0.4,0.7,0.7,1.5,0.9,2.3c0.3,0.8,1,3.8,2.3,8.9s2.7,11.2,4.4,18.3
			c1.7,7.1,3.4,14.1,5.1,20.9C172.3,69.3,173.9,76.2,174.8,79.6"/>
		<path d="M220.8,0c0.9,0.1,1.7,0.6,2.3,1.3c0.9,0.9,1.8,1.9,2.9,3s1.9,2.2,2.9,3.2c0.8,0.9,1.8,1.6,2.9,2.1
			c1.1,0.4,2.2,0.6,3.4,0.6c1.4,0.1,2.9,0.2,4.4,0.2s3.4-0.1,5.6-0.1c-1.6,2.1-3.3,4.1-5.2,5.9c-1.7,1.6-3.6,3-5.6,4.1
			c-2.1,1.2-4.4,1.8-6.8,1.8c-2.2,0.1-4.5-0.3-6.6-1c-1.4-0.5-2.8-1.4-3.9-2.5c-0.9-0.9-1.8-1.9-2.5-3c-0.4-0.5-0.7-1-1.1-1.4
			c-0.2-0.2-0.5-0.4-0.8-0.3c-0.4,0-0.8,0.2-1.1,0.5c-0.4,0.5-0.6,1.1-0.5,1.6v12.5c0,0.3,0,0.5,0.1,0.7c0.1,0.2,0.2,0.4,0.3,0.5
			l28.3,28.6c0.3,0.4,0.5,0.7,0.7,1.1c0.2,0.3,0.3,0.7,0.3,1.1V70c0,0.5-0.2,1-0.6,1.3c-1.3,1.5-3.9,4.3-7.6,8.2
			c-3.7,3.9-7.5,7.8-11.2,11.4c-3.7,3.6-6.1,5.5-7,5.5c-1.1-0.1-2.1-0.7-2.7-1.5c-1.1-1.1-2.1-2.2-3-3.4c-1.1-1.3-2.2-2.5-3.5-3.6
			c-1.2-0.8-2.5-1.3-3.9-1.5c-1.7-0.3-3.4-0.5-5.1-0.6c-1.7-0.1-3.8-0.1-6.3,0c1.5-2.2,3.2-4.3,5.1-6.3c1.7-1.7,3.7-3.1,5.8-4.3
			c2.2-1.2,4.7-1.9,7.2-1.9c2-0.1,4,0.5,5.7,1.6c1.5,1,3,2.1,4.3,3.3c0.8,0.8,1.8,1.6,2.8,2.2c0.8,0.6,1.7,0.9,2.7,0.9
			c0.2,0,0.5,0,0.7-0.2c0.3-0.2,0.5-0.5,0.6-0.9c0.2-0.6,0.3-1.3,0.3-2V65.7c0-0.3,0-0.6-0.2-0.9c-0.1-0.3-0.3-0.5-0.5-0.8
			l-29.1-28.3c-0.1-0.1-0.2-0.3-0.2-0.4c-0.1-0.1-0.1-0.3,0-0.4v-2.3c0-1,0-2,0-3s0-2.2,0-3.6c0-0.1,0-0.3,0-0.4
			c0-0.1,0.1-0.2,0.1-0.3c0-0.1,0.1-0.2,0.1-0.2c1.1-1.3,3.5-4,7-7.9c3.5-3.9,7.2-7.8,11.1-11.6C217.1,1.9,219.5,0,220.8,0"/>
		<path d="M281.4,0c0.9,0.1,1.7,0.6,2.3,1.3c0.9,0.9,1.8,1.9,2.9,3s1.9,2.2,2.9,3.2c0.8,0.9,1.8,1.6,2.9,2.1
			c1.1,0.4,2.2,0.6,3.4,0.6c1.4,0.1,2.9,0.2,4.5,0.2s3.4-0.1,5.6-0.1c-1.6,2.1-3.3,4-5.2,5.9c-1.7,1.6-3.6,3-5.6,4.1
			c-2.1,1.2-4.4,1.8-6.8,1.8c-2.2,0.1-4.4-0.3-6.5-1c-1.4-0.5-2.8-1.4-3.9-2.5c-0.9-0.9-1.8-1.9-2.5-3c-0.4-0.5-0.7-1-1.1-1.4
			c-0.2-0.2-0.5-0.4-0.8-0.3c-0.4,0-0.8,0.2-1.1,0.5c-0.4,0.5-0.6,1.1-0.5,1.6v12.5c0,0.5,0.1,0.9,0.4,1.3l28.3,28.6
			c0.3,0.4,0.5,0.7,0.7,1.1c0.2,0.3,0.3,0.7,0.3,1.1V70c0,0.5-0.2,1-0.6,1.3c-1.3,1.5-3.9,4.3-7.6,8.2c-3.7,3.9-7.5,7.8-11.2,11.4
			c-3.8,3.6-6.1,5.5-7,5.5c-1.1-0.1-2.1-0.7-2.7-1.5c-1.1-1.1-2.1-2.2-3-3.4c-1.1-1.3-2.2-2.5-3.5-3.6c-1.2-0.8-2.6-1.3-4-1.5
			c-1.6-0.3-3.3-0.5-5-0.6c-1.7-0.1-3.8-0.1-6.3,0c1.5-2.2,3.3-4.3,5.1-6.2c1.7-1.7,3.7-3.1,5.8-4.3c2.2-1.2,4.7-1.9,7.2-1.9
			c2-0.1,4,0.5,5.7,1.6c1.5,1,3,2.1,4.3,3.3c0.8,0.8,1.8,1.6,2.8,2.2c0.8,0.6,1.7,0.9,2.7,0.9c0.2,0,0.5,0,0.7-0.2
			c0.3-0.2,0.5-0.5,0.6-0.9c0.2-0.6,0.3-1.3,0.3-2V65.7c0-0.3,0-0.6-0.2-0.9c-0.1-0.3-0.3-0.5-0.5-0.8l-29-28.3l-0.2-0.4
			c-0.1-0.1-0.1-0.3-0.1-0.4v-2.3c0-1,0-2,0-3s0-2.2,0-3.6c0-0.1,0-0.3,0-0.4c0-0.1,0.1-0.2,0.1-0.3c0-0.1,0.1-0.2,0.1-0.2
			c1.1-1.3,3.5-4,7.1-7.9s7.3-7.8,11-11.6C277.7,1.9,280.2,0,281.4,0"/>
	</g>
</g>
</svg>
