<svg xmlns="http://www.w3.org/2000/svg" viewBox="0 0 305.82 173.24"><defs><style>.cls-1{fill:#1d1d1b;}</style></defs><g id="Layer_2" data-name="Layer 2"><g id="Layer_1-2" data-name="Layer 1"><path class="cls-1" d="M192.87,135.94h8.91v36.39h6.57V124.46h-4.3c-1.74,5-4.53,7.25-11.18,7.25Zm-10,12.61c0,12.91-4.16,19.41-12.91,19.41S157,161.46,157,148.55s4.16-19.41,12.92-19.41,12.91,6.5,12.91,19.41m6.87,0c0-15.78-7.33-24.69-19.78-24.69s-19.71,8.91-19.71,24.69,7.25,24.69,19.71,24.69,19.78-8.91,19.78-24.69m-66.39,13.92q5.76-5.13,12-11.11a88.2,88.2,0,0,0,9.95-10.84c2.05-2.83,3.11-5.13,3.17-6.92a8,8,0,0,0-1.47-4.81c-1-1.55-2.16-2.33-3.35-2.33a2.08,2.08,0,0,0-.4.05,1.38,1.38,0,0,0-.49.22,81.76,81.76,0,0,0-7.72,4.64,42.51,42.51,0,0,0-6.29,5l.35.36a56.4,56.4,0,0,1,5.49-3.93,15.49,15.49,0,0,1,4.33-2.05,4.2,4.2,0,0,1,2.46,2.14,7.67,7.67,0,0,1,.93,3.75,14.63,14.63,0,0,1-1.87,6.91,30.68,30.68,0,0,1-5.71,7.28q-3.75,3.75-9.15,8.65t-10,8.75a2.34,2.34,0,0,1-1.7-.71,2.71,2.71,0,0,1-.8-1.7q2.05-9.81,3.35-17.85a70.07,70.07,0,0,0,1.2-10.71,19.42,19.42,0,0,0-1.6-7.85c-1-1.9-2.21-2.86-3.75-2.86a3.57,3.57,0,0,0-.94.14,4.9,4.9,0,0,0-1.12.49,54.24,54.24,0,0,0-6.56,4.33,66,66,0,0,0-6.2,5.22l.45.35a38.87,38.87,0,0,1,4.91-3.65,17,17,0,0,1,4-2.06c1.07.06,2,.82,2.68,2.28a14.06,14.06,0,0,1,1.16,5.75,66.21,66.21,0,0,1-1,9.2q-1,6.42-3.88,20.79a2.9,2.9,0,0,0,1.56,2.37,5.21,5.21,0,0,0,2.73,1,4.23,4.23,0,0,0,1.11-.13,2,2,0,0,0,.85-.49q5.53-4.56,11.29-9.69"/><path class="cls-1" d="M2.83,51.82V26.31A1.45,1.45,0,0,1,3,25.47,2.9,2.9,0,0,1,3.37,25Q8,20.52,13.48,14.45q5.06-5.67,9.47-10C25.9,1.49,28,0,29.39,0a4.81,4.81,0,0,1,3,1.05,21.57,21.57,0,0,1,2.7,2.53,21.54,21.54,0,0,0,6.5,5.05q4.16,2.22,12.3,1a19.47,19.47,0,0,1-4,5.57,33.06,33.06,0,0,1-6.3,5,12.58,12.58,0,0,1-6.51,2.13,17.15,17.15,0,0,1-7-1.25,14.83,14.83,0,0,1-4.44-2.93,20,20,0,0,1-2.7-3.24,1.54,1.54,0,0,0-1.55-.74,2.75,2.75,0,0,0-1.65.88A2.44,2.44,0,0,0,19,16.81V75.65c2.11,0,3.57.32,4.38.94a7.84,7.84,0,0,1,2,2.23A7.08,7.08,0,0,0,27.23,81c.81.62,2.25.94,4.32.94a4.5,4.5,0,0,0,1.58-.34c.61-.22.91-.78.91-1.68v-23a5.16,5.16,0,0,0-1.11-3.5,4.83,4.83,0,0,0-2.73-1.62.5.5,0,0,1-.34-.51.9.9,0,0,1,.27-.64,38,38,0,0,0,5.8-7.07,26.73,26.73,0,0,1,2.43-3.34,3.22,3.22,0,0,1,2.42-1.31A3.11,3.11,0,0,1,42.94,40a24.19,24.19,0,0,1,2.29,2.69,37.72,37.72,0,0,0,4,4.45,2.22,2.22,0,0,1,.68.71,2.49,2.49,0,0,1,.33,1.38V81.92a5.58,5.58,0,0,0,.48,1.14,4.38,4.38,0,0,0,.74,1,3.89,3.89,0,0,0,1.35.81c.09,0,.15.15.2.33a1.18,1.18,0,0,1,0,.61,1.14,1.14,0,0,1-.3.54,49.31,49.31,0,0,0-4.18,4.58,31.36,31.36,0,0,1-3.4,3.84,5.65,5.65,0,0,1-3.47,1.69,4,4,0,0,1-2.87-1.82,35.55,35.55,0,0,1-2.66-3.91c-.67-1.08-1.3-2-1.89-2.8s-1.1-1.2-1.55-1.24h-.47a2.24,2.24,0,0,0-1.82,1.24c-.54.84-1.1,1.79-1.68,2.87a22.32,22.32,0,0,1-2.33,3.91,3.84,3.84,0,0,1-3.13,1.75,5,5,0,0,1-3.58-1.62,32.32,32.32,0,0,1-3.1-3.64,29,29,0,0,0-2.73-3.33,4.09,4.09,0,0,0-3-1.45c-1,0-2.54,0-4.51.07s-3.71.08-5.19.13c-1.26,0-1.48-.43-.68-1.28a8.41,8.41,0,0,0,1.62-2.43A8.77,8.77,0,0,0,2.83,79Z"/><path class="cls-1" d="M70.48,17.21a6,6,0,0,0-1.25-4.14,10.3,10.3,0,0,0-2.26-2l-.13-.14a18.41,18.41,0,0,0,3.37-2.56Q72,6.7,73.85,4.81c1.25-1.3,2.41-2.43,3.47-3.37A4.49,4.49,0,0,1,79.71,0a3.36,3.36,0,0,1,2.7,1.78A37.78,37.78,0,0,1,84.7,5.69a16.67,16.67,0,0,0,2.09,3.43h.06a1.47,1.47,0,0,1,.21.34,2.1,2.1,0,0,1,.13.88V75.45a8.72,8.72,0,0,1,4.72,1.89,15,15,0,0,1,2.76,3.16,7.64,7.64,0,0,0,3,2.9,4.4,4.4,0,0,0,2.15-1.08,9,9,0,0,1,2-1.21c.22,0,.55.15,1,.57a6.16,6.16,0,0,1,1.08,1.45,1.3,1.3,0,0,1,.17,1.28,28.16,28.16,0,0,0-6.87,7.35,40.46,40.46,0,0,1-2.63,3.3,3.59,3.59,0,0,1-2.7,1.35,4.28,4.28,0,0,1-2.93-1.28,29,29,0,0,1-2.8-3,20.32,20.32,0,0,0-5.79-5.19,8.32,8.32,0,0,0-3-.54c-1.3-.05-2.65,0-4,.06s-3.08.25-5,.48a22.85,22.85,0,0,0,1.75-2.36A11.62,11.62,0,0,0,71.08,82,8.65,8.65,0,0,0,71.49,79q0-11.52-.47-31.27-.54-19.41-.54-30.47"/><path class="cls-1" d="M140.2,54.62h11.25l-4.58-21.9Zm34.57,25A9.89,9.89,0,0,0,177,82.76a17.59,17.59,0,0,0,2.42,1.92A.82.82,0,0,1,179.7,86c-.77,1-1.88,2.21-3.34,3.81s-2.93,3.08-4.42,4.45-2.6,2-3.37,2a6.58,6.58,0,0,1-3.23-1.61,43.26,43.26,0,0,1-4-3.37,12.88,12.88,0,0,1-2.16-2.43c-.36-1.62-.78-3.66-1.28-6.14s-1-5-1.44-7.51-1-5.56-1.66-9.07l-17.18.07c-.36,1.57-.69,2.93-1,4.08s-.57,2.29-.84,3.44-.5,2.12-.68,2.93a5.62,5.62,0,0,1,2.77,1.11,11.26,11.26,0,0,1,1.68,1.72,11.62,11.62,0,0,0,1.21,1.28,4,4,0,0,0,1.49.81,5.19,5.19,0,0,0,2.63-.54,17.59,17.59,0,0,0,2.49-1.28c.31-.23.65-.16,1,.2s1,1.24,2,2.36a.37.37,0,0,1,0,.27,2.63,2.63,0,0,1-.1.3.45.45,0,0,1-.2.24,28.38,28.38,0,0,0-6.81,7.08,38.47,38.47,0,0,1-3.61,4.31,5.32,5.32,0,0,1-3.81,1.82,3.15,3.15,0,0,1-2.49-1.08,13.2,13.2,0,0,1-1.75-2.63A18,18,0,0,0,129,88.93a9.91,9.91,0,0,0-4.76-2.7c-.53,0-1-.07-1.41-.07-1-.08-1.87-.14-2.5-.16a18.94,18.94,0,0,0-2.29.07c-.9.06-2.22.21-4,.43a1.15,1.15,0,0,1-.81-.17,1,1,0,0,1-.51-.74,1.86,1.86,0,0,1,.44-1.31,40.42,40.42,0,0,1,4.15-4.79,31.88,31.88,0,0,1,6.37-4.92q1.41-6.06,3.94-16t5.12-20.32q2.59-10.35,6.3-24.84a2.36,2.36,0,0,0,0-.84,2.14,2.14,0,0,0-.27-.74,2,2,0,0,0-.64-.68,2,2,0,0,0-1.18-.3,1,1,0,0,0-.27-.1.43.43,0,0,1-.23-.14.31.31,0,0,1-.07-.3,1.65,1.65,0,0,1,.24-.54,22.76,22.76,0,0,1,2.76-3.23q1.76-1.75,3.33-3.14l2-1.72s.07,0,.07-.07a8.94,8.94,0,0,1,2-1.34,2.91,2.91,0,0,1,2.33,0,10.24,10.24,0,0,1,3.27,2.6c1.35,1.43,2.38,2.58,3.1,3.43a17,17,0,0,1,1.62,2.23,11.55,11.55,0,0,1,.94,2.29q.41,1.21,2.26,8.86T164.73,38q2.57,10.68,5.06,20.86,3.71,15.63,5,20.76"/><path class="cls-1" d="M220.76,0a3.64,3.64,0,0,1,2.33,1.27c.87.86,1.83,1.87,2.86,3s1.91,2.18,2.9,3.17a9.67,9.67,0,0,0,2.9,2.09,12.35,12.35,0,0,0,3.37.64c1.44.11,2.92.17,4.45.17s3.39-.05,5.59-.14A51.18,51.18,0,0,1,240,16.14a28.21,28.21,0,0,1-5.63,4.07A13.69,13.69,0,0,1,227.57,22,17.94,17.94,0,0,1,221,21a11,11,0,0,1-3.87-2.46,23.9,23.9,0,0,1-2.53-3c-.36-.5-.72-1-1.08-1.42a1,1,0,0,0-.84-.33,1.49,1.49,0,0,0-1.08.5,2.26,2.26,0,0,0-.51,1.65V28.4a2.35,2.35,0,0,0,.1.74,2.14,2.14,0,0,0,.31.54l28.31,28.58a9.26,9.26,0,0,1,.74,1.11,2.35,2.35,0,0,1,.27,1.12V70a2,2,0,0,1-.61,1.35q-2,2.3-7.61,8.22T221.4,91q-5.62,5.46-7,5.46a4.15,4.15,0,0,1-2.73-1.52,38,38,0,0,1-3-3.4,27.67,27.67,0,0,0-3.5-3.64,10.52,10.52,0,0,0-3.95-1.48,32.12,32.12,0,0,0-5.05-.57c-1.73-.07-3.84-.08-6.31,0A46,46,0,0,1,195,79.59a28.21,28.21,0,0,1,5.8-4.28A14.53,14.53,0,0,1,208,73.43a10.22,10.22,0,0,1,5.7,1.55,31.21,31.21,0,0,1,4.28,3.3,18.64,18.64,0,0,0,2.76,2.22,4.89,4.89,0,0,0,2.7.88.86.86,0,0,0,.67-.17,2,2,0,0,0,.61-.87,5.46,5.46,0,0,0,.27-2V65.74a2,2,0,0,0-.17-.87,3.56,3.56,0,0,0-.51-.75l-29.05-28.3c-.09-.14-.17-.26-.23-.37A.84.84,0,0,1,195,35v-2.3c0-1,0-2,0-3s0-2.18,0-3.57a2.59,2.59,0,0,1,0-.44,1.67,1.67,0,0,1,.11-.34.53.53,0,0,1,.13-.23q1.68-2,7-7.92t11.06-11.6Q218.94,0,220.76,0"/><path class="cls-1" d="M281.42,0a3.64,3.64,0,0,1,2.33,1.27c.88.86,1.83,1.87,2.86,3s1.91,2.18,2.9,3.17a9.67,9.67,0,0,0,2.9,2.09,12.35,12.35,0,0,0,3.37.64c1.44.11,2.92.17,4.45.17s3.39-.05,5.59-.14a51.18,51.18,0,0,1-5.19,5.87A28.14,28.14,0,0,1,295,20.21,13.75,13.75,0,0,1,288.23,22a17.94,17.94,0,0,1-6.54-1,11.11,11.11,0,0,1-3.87-2.46,23.9,23.9,0,0,1-2.53-3c-.36-.5-.72-1-1.08-1.42a1,1,0,0,0-.84-.33,1.51,1.51,0,0,0-1.08.5,2.31,2.31,0,0,0-.5,1.65V28.4a1.84,1.84,0,0,0,.4,1.28L300.5,58.26a9.26,9.26,0,0,1,.74,1.11,2.35,2.35,0,0,1,.27,1.12V70a2,2,0,0,1-.61,1.35q-2,2.3-7.61,8.22T282.07,91q-5.64,5.46-7.05,5.46a4.15,4.15,0,0,1-2.73-1.52,38,38,0,0,1-3-3.4,27.67,27.67,0,0,0-3.5-3.64,10.52,10.52,0,0,0-4-1.48,32.12,32.12,0,0,0-5-.57q-2.6-.1-6.3,0a45.22,45.22,0,0,1,5.15-6.17,28.49,28.49,0,0,1,5.8-4.28,14.53,14.53,0,0,1,7.24-1.88,10.18,10.18,0,0,1,5.7,1.55,31.21,31.21,0,0,1,4.28,3.3,18.64,18.64,0,0,0,2.76,2.22,4.89,4.89,0,0,0,2.7.88.85.85,0,0,0,.67-.17,2,2,0,0,0,.61-.87,5.46,5.46,0,0,0,.27-2V65.74a2,2,0,0,0-.17-.87,3.9,3.9,0,0,0-.5-.75L256,35.82l-.24-.37a.84.84,0,0,1-.1-.44v-2.3c0-1,0-2,0-3s0-2.18,0-3.57a1.78,1.78,0,0,1,0-.44,1.62,1.62,0,0,1,.1-.34.66.66,0,0,1,.13-.23q1.68-2,7.05-7.92t11.05-11.6Q279.59,0,281.42,0"/></g></g></svg>