<?xml version="1.0" standalone="no"?>
<!DOCTYPE svg PUBLIC "-//W3C//DTD SVG 20010904//EN"
 "http://www.w3.org/TR/2001/REC-SVG-20010904/DTD/svg10.dtd">
<svg version="1.0" xmlns="http://www.w3.org/2000/svg"
 width="151.000000pt" height="151.000000pt" viewBox="0 0 151.000000 151.000000"
 preserveAspectRatio="xMidYMid meet">
<metadata>
Created by potrace 1.14, written by Peter Selinger 2001-2017
</metadata>
<g transform="translate(0.000000,151.000000) scale(0.100000,-0.100000)"
fill="#000000" stroke="none">
<path d="M754 1258 c-16 -13 -63 -59 -104 -103 -41 -44 -91 -98 -111 -119
l-36 -39 -1 -303 c0 -259 -2 -308 -15 -328 -9 -13 -14 -26 -11 -28 2 -3 32 -3
65 -1 l61 4 51 -55 c67 -72 87 -73 128 -5 17 27 37 49 44 47 7 -2 28 -23 47
-48 53 -70 68 -66 157 39 25 28 26 35 7 50 -11 9 -13 51 -13 195 l0 184 -43
50 c-23 28 -48 53 -55 56 -15 6 -47 -22 -71 -64 -10 -16 -22 -30 -26 -30 -4 0
-12 -9 -18 -20 -9 -17 -7 -24 11 -39 20 -16 22 -26 22 -153 0 -74 -3 -140 -7
-147 -13 -21 -48 -11 -87 24 -22 19 -45 35 -52 35 -11 0 -14 59 -14 313 -1
171 1 320 4 330 6 24 24 21 53 -9 38 -41 61 -53 112 -57 59 -6 114 21 171 83
l42 45 -60 5 c-65 5 -110 28 -159 79 -35 37 -52 38 -92 9z"/>
</g>
</svg>
